<?xml version="1.0" encoding="UTF-8"?>
<svg version="1.1" xmlns="http://www.w3.org/2000/svg" viewBox="0 0 728 403">
<path d="M0 0 C1.42047068 0.00141404 2.840945 0.00061156 4.26141357 -0.00221252 C8.07909187 -0.00363425 11.89596829 0.02555057 15.71346188 0.06065726 C19.71723694 0.09213098 23.72103485 0.09486792 27.72491455 0.1007843 C35.28954087 0.11626153 42.85380147 0.15720599 50.41826749 0.20753175 C59.03743511 0.26361708 67.65662114 0.29095972 76.27592611 0.31600893 C93.99047239 0.36812817 111.70467934 0.45594987 129.41894531 0.56762695 C128.03177479 9.71785402 126.10642393 18.69437726 123.99951172 27.70239258 C123.65264941 29.19789974 123.30611878 30.69348386 122.95988846 32.18913746 C122.21226803 35.41544016 121.46229748 38.64118411 120.71047592 41.86651039 C119.49150867 47.09595229 118.2778627 52.32662136 117.06472778 57.55741882 C115.08368382 66.09636825 113.09894923 74.63445539 111.11285841 83.17223221 C107.16140638 100.15940902 103.21758714 117.14836021 99.27354431 134.13725853 C98.32014955 138.2439468 97.36652983 142.35058275 96.41273499 146.45717812 C89.94951091 174.28626222 83.52195813 202.12328487 77.13637924 229.97028732 C75.87850047 235.45549558 74.61923556 240.94038496 73.35964966 246.42520142 C72.7451246 249.1013706 72.13060962 251.7775421 71.51609492 254.45371366 C71.1125577 256.21106576 70.7090037 257.968414 70.30543256 259.72575831 C67.95465537 269.96287489 65.60907619 280.20115243 63.27156627 290.44130677 C61.81247461 296.83131859 60.34734389 303.21992698 58.87759793 309.60749656 C57.87633374 313.96029992 56.88188955 318.31457505 55.89320838 322.67025268 C55.14924228 325.93736194 54.39410294 329.20186856 53.640625 332.46679688 C53.38629511 333.59750359 53.13196522 334.7282103 52.86992836 335.89318085 C47.25296863 360.01858651 35.97010064 382.22240785 14.44921875 395.82080078 C11.79939283 397.45491031 9.12850815 399.03436116 6.41894531 400.56762695 C5.49628309 401.09152165 4.57362087 401.61541636 3.62299919 402.15518665 C0.12901106 403.69543842 -2.16217611 403.93799511 -5.959198 403.9283905 C-7.22115494 403.9325145 -8.48311188 403.93663849 -9.78330994 403.94088745 C-11.16885593 403.93027212 -12.55439973 403.91936773 -13.93994141 403.90820312 C-15.40878787 403.90735629 -16.8776356 403.90783309 -18.34648132 403.90953064 C-22.32338384 403.91038983 -26.30001379 403.89277651 -30.27685308 403.87180877 C-34.43684341 403.85302925 -38.59684028 403.85129052 -42.75686646 403.84773254 C-50.6296963 403.83841582 -58.50240087 403.8138071 -66.3751756 403.78368407 C-75.34005997 403.75012846 -84.3049504 403.73365114 -93.26988196 403.71859777 C-111.70701051 403.6872572 -130.14402252 403.63450396 -148.58105469 403.56762695 C-145.11451363 386.43824959 -141.1308862 369.42704286 -137.18217587 352.40416384 C-136.18527874 348.10452169 -135.19066159 343.8043521 -134.19578552 339.50424194 C-132.48663446 332.11813669 -130.77620537 324.73232844 -129.06481934 317.34674072 C-125.23601818 300.82326426 -121.41135849 284.29882906 -117.58661902 267.77441204 C-116.43695444 262.80740359 -115.28720554 257.8404147 -114.13726425 252.87347031 C-107.84960016 225.71489518 -101.57608819 198.55310292 -95.31983161 171.3872757 C-94.35441087 167.19555315 -93.38865543 163.00390772 -92.42292786 158.81225586 C-91.67182472 155.55200651 -90.92074448 152.29175188 -90.16967773 149.03149414 C-89.89577546 147.84253745 -89.89577546 147.84253745 -89.6163398 146.62956142 C-87.46953032 137.31032371 -85.32435473 127.99071278 -83.18155557 118.67055213 C-81.8492135 112.87608166 -80.51504473 107.08203365 -79.17949122 101.28830254 C-78.41756334 97.98265849 -77.65679495 94.67675906 -76.89782524 91.37043381 C-62.75117917 29.74864815 -62.75117917 29.74864815 -34.20605469 10.25512695 C-33.34234253 9.66006348 -33.34234253 9.66006348 -32.46118164 9.05297852 C-21.98175448 2.21150211 -12.45630752 -0.17180118 0 0 Z " fill="#F27228" transform="translate(344.5810546875,-0.567626953125)"/>
<path d="M0 0 C1.80238129 -0.00043808 1.80238129 -0.00043808 3.64117432 -0.00088501 C6.89037236 0.00025768 10.139391 0.01018689 13.38855386 0.02426291 C16.80111658 0.03688933 20.213684 0.03795004 23.62626648 0.04031372 C30.06803108 0.04649389 36.50972662 0.06285705 42.95146102 0.0830127 C50.29381374 0.10548047 57.63617002 0.1163923 64.97854865 0.12640357 C80.06345547 0.14722697 95.14829793 0.18233446 110.2331543 0.22705078 C109.55963388 8.9464844 107.50469116 17.30878375 105.51464844 25.79858398 C105.12634457 27.47223754 104.73849904 29.14599748 104.35107422 30.81985474 C103.29928145 35.35832698 102.24117141 39.89530554 101.18198323 44.43205667 C100.06306962 49.2298687 98.95023663 54.02909071 97.83677673 58.82817078 C95.71718557 67.95975745 93.59251917 77.09015499 91.46586746 86.22009963 C88.38490842 99.44786664 85.31097978 112.67726736 82.23765469 125.90680981 C81.77541565 127.89654737 81.31317638 129.88628488 80.85093689 131.87602234 C80.62415534 132.85227277 80.39737379 133.82852319 80.16372007 134.83435696 C78.85051645 140.48665968 77.53579806 146.13860676 76.21940392 151.79016727 C75.59460232 154.47337354 74.97057151 157.1567582 74.34664059 159.84016705 C73.53299671 163.33905052 72.71590704 166.83710459 71.89657688 170.33466053 C69.97137718 178.57574072 68.08959011 186.8224062 66.31837732 195.09812361 C65.46663156 199.07429141 64.60007173 203.04718333 63.73353279 207.02014959 C63.32860524 208.89894865 62.93130813 210.7794129 62.54265797 212.66164649 C57.68667417 236.16937613 46.86408478 257.68517662 26.9831543 272.03955078 C9.69304091 283.34068065 -7.70930265 287.40559848 -28.26318359 287.34057617 C-29.48369415 287.3407222 -30.70420471 287.34086823 -31.96170044 287.34101868 C-35.28133444 287.3404447 -38.60090492 287.33545735 -41.9205277 287.32844472 C-45.39985161 287.32215918 -48.87917653 287.32160329 -52.35850525 287.32041931 C-58.9349587 287.31732125 -65.51139536 287.30912857 -72.08784145 287.29906982 C-79.58004554 287.28786114 -87.07225047 287.28238629 -94.56446087 287.27737439 C-109.96526551 287.26694456 -125.36605343 287.24937487 -140.7668457 287.22705078 C-138.16979819 274.69825059 -135.43471506 262.20998831 -132.55249023 249.74389648 C-132.14769931 247.98698787 -131.74306137 246.230044 -131.33856201 244.47306824 C-130.25335569 239.76159474 -129.16588246 235.05064738 -128.07783747 230.33982873 C-127.16283411 226.37721592 -126.24898689 222.41433684 -125.33512962 218.45145959 C-123.17517078 209.08501859 -121.0133701 199.71900407 -118.8503418 190.35327148 C-116.63486929 180.76033239 -114.42230886 171.16672507 -112.2112304 161.57277232 C-110.29846121 153.27362073 -108.38395204 144.97487184 -106.46807945 136.67643613 C-105.33017814 131.7476701 -104.19286309 126.81877096 -103.05719376 121.88949013 C-94.96682648 86.78064284 -94.96682648 86.78064284 -91.34838867 72.15356445 C-91.12363924 71.23688901 -90.89888981 70.32021357 -90.66732979 69.37576008 C-84.6500082 45.43415739 -70.97740502 25.11770298 -49.84204102 12.08422852 C-34.36912244 2.91405974 -17.88068152 -0.1165232 0 0 Z " fill="#1569B2" transform="translate(141.766845703125,58.77294921875)"/>
<path d="M0 0 C2.73339087 0.00729423 5.4667814 0.01001934 8.20018005 0.01286316 C14.61352086 0.02211025 21.02670442 0.0466222 27.43997663 0.07691163 C34.75338954 0.11068716 42.06681078 0.12699924 49.38028252 0.14199793 C64.39813986 0.17318029 79.41585092 0.22579444 94.43359375 0.29296875 C93.75577984 9.07091495 91.68818548 17.50069312 89.69921875 26.05151367 C89.30930397 27.74475786 88.91983554 29.43810489 88.53077698 31.13154602 C87.47495505 35.72126711 86.41282395 40.30950717 85.34949112 44.89749312 C84.22773863 49.74223034 83.1116497 54.58827218 81.99487305 59.43415833 C80.11176789 67.60166184 78.22491714 75.76829238 76.33544922 83.93432617 C73.7029353 95.31175463 71.07742819 106.69079118 68.45324326 118.0701431 C66.6076508 126.07193591 64.76025284 134.07331205 62.9125824 142.07462525 C62.47243479 143.98073937 62.03233977 145.88686564 61.59230042 147.79300475 C60.95460084 150.55525285 60.31671947 153.31745887 59.67871094 156.07963562 C59.47198069 156.9746914 59.26525043 157.86974717 59.05225563 158.79192585 C58.0360982 163.18851887 57.01705196 167.5844113 55.99215698 171.97897625 C55.7941279 172.82818108 55.59609882 173.67738592 55.39206886 174.55232424 C54.99563327 176.25232951 54.59910755 177.95231377 54.20248985 179.65227658 C52.99814991 184.82704088 51.81883435 190.00685724 50.65710545 195.19134849 C49.88501977 198.626736 49.10044517 202.05920624 48.31390953 205.49131072 C47.95212658 207.08353501 47.59576417 208.67700395 47.24570656 210.27184713 C42.85778133 230.23943148 34.94182841 247.54532427 20.43359375 262.29296875 C19.67304687 263.06640625 18.9125 263.83984375 18.12890625 264.63671875 C-4.32797739 286.13642374 -32.50886376 287.76596126 -61.9140625 287.5859375 C-64.62503311 287.5786429 -67.33600336 287.57591809 -70.04698181 287.57307434 C-76.40719931 287.56382806 -82.76725822 287.53931727 -89.12740654 287.50902587 C-96.3803609 287.47524775 -103.63332369 287.45893762 -110.8863374 287.44393957 C-125.77978136 287.41275906 -140.67307778 287.36014656 -155.56640625 287.29296875 C-155.02876881 279.5467012 -153.56601551 272.19598339 -151.78515625 264.64819336 C-151.49989421 263.41669682 -151.21463217 262.18520027 -150.92072582 260.91638565 C-150.13999711 257.54660351 -149.35156438 254.17866655 -148.56174064 250.81100631 C-147.72172193 247.22308183 -146.88904088 243.63345454 -146.05549622 240.04402161 C-144.4523778 233.14573018 -142.84277311 226.2489693 -141.23066229 219.35277444 C-139.38273785 211.4470453 -137.54050638 203.53999351 -135.69880497 195.63281274 C-134.78218121 191.69742076 -133.86535658 187.7620756 -132.94844055 183.82675171 C-132.76795565 183.05212487 -132.58747075 182.27749803 -132.40151662 181.47939765 C-131.13226545 176.03259234 -129.86155907 170.58612769 -128.59025574 165.13980103 C-124.85623617 149.14129265 -121.1366729 133.13972976 -117.46094131 117.12770271 C-116.28874243 112.02359974 -115.11252988 106.92041985 -113.93664742 101.81716442 C-113.08130635 98.1029096 -112.22881709 94.38804935 -111.38305664 90.67160034 C-106.26454985 68.19157309 -101.38444127 46.92756256 -85.56640625 29.29296875 C-84.75429688 28.38675781 -83.9421875 27.48054688 -83.10546875 26.546875 C-60.17274095 2.30274488 -31.82397687 -0.19319345 0 0 Z " fill="#24B24B" transform="translate(573.56640625,58.70703125)"/>
<path d="M0 0 C13.94324791 -0.07020456 27.88646825 -0.12284439 41.82985687 -0.15543652 C48.30460244 -0.17108049 54.77922911 -0.19229596 61.25390625 -0.22631836 C67.50439114 -0.2589565 73.75476178 -0.27686256 80.00532532 -0.28463173 C82.38790179 -0.29016719 84.77047214 -0.30097658 87.15299988 -0.31719017 C90.49471462 -0.33902316 93.83595958 -0.3419644 97.17773438 -0.34057617 C98.64941071 -0.35675491 98.64941071 -0.35675491 100.15081787 -0.3732605 C108.17196415 -0.33729419 115.11138534 1.11138534 121 7 C126.0105321 14.01190611 127.67342858 19.38595799 127 28 C126.13527583 32.87009819 124.96151532 37.6433608 123.75 42.4375 C123.44964844 43.68337891 123.14929688 44.92925781 122.83984375 46.21289062 C119.32968796 60.44022422 115.57636893 73.69651958 103.28515625 82.74609375 C97.02813958 86.1794311 91.68361641 87.44459897 84.65625 87.34057617 C83.86504257 87.34101425 83.07383514 87.34145233 82.25865173 87.34190369 C79.67217367 87.33983208 77.08636326 87.31657921 74.5 87.29296875 C72.69539748 87.28736698 70.89079037 87.28309963 69.08618164 87.28010559 C64.3580444 87.26870253 59.63018774 87.23927484 54.90216064 87.20599365 C50.06892694 87.17519448 45.2356475 87.16157928 40.40234375 87.14648438 C30.93477319 87.11440044 21.46741002 87.06325951 12 87 C11.86772507 87.8799765 11.73545013 88.759953 11.59916687 89.66659546 C11.33484612 91.40823471 11.33484612 91.40823471 11.06518555 93.18505859 C10.89166061 94.3331601 10.71813568 95.4812616 10.53935242 96.66415405 C8.01364232 112.2854427 4.08193486 126.4306178 -9.18359375 136.2734375 C-16.10218301 140.5147918 -23.77056699 143.95691082 -32 143 C-31.49611907 135.0226384 -29.83168641 127.54679959 -27.875 119.8125 C-27.23498003 117.22442754 -26.59658648 114.63601816 -25.9609375 112.046875 C-25.7161264 111.05277367 -25.7161264 111.05277367 -25.46636963 110.03858948 C-23.7159775 102.90134128 -22.10288157 95.73416974 -20.5 88.5625 C-17.98351682 77.32444177 -15.40662722 66.10198643 -12.77880859 54.8894043 C-9.79838522 42.16464764 -6.86403534 29.42936898 -3.93212891 16.69335938 C-3.74453003 15.87904449 -3.55693115 15.06472961 -3.36364746 14.22573853 C-3.01102163 12.69503265 -2.65870817 11.16425478 -2.3067627 9.63339233 C-1.56520308 6.41483999 -0.80750922 3.20260126 0 0 Z " fill="#FEFDFD" transform="translate(288,131)"/>
<path d="M0 0 C1.05440781 -0.00014603 2.10881561 -0.00029205 3.19517517 -0.0004425 C6.66342257 0.00025145 10.13161556 0.00801959 13.59985352 0.01586914 C16.01123526 0.01773516 18.42261738 0.01915819 20.83399963 0.02015686 C27.16821344 0.02396756 33.50240417 0.03378549 39.83660889 0.04486084 C46.3052133 0.05510609 52.77382145 0.05966115 59.24243164 0.06469727 C71.92538417 0.07540906 84.60832074 0.09227476 97.29125977 0.11352539 C96.83084079 1.71609798 96.36503696 3.31712415 95.89697266 4.91748047 C95.63815811 5.80921463 95.37934357 6.70094879 95.11268616 7.6197052 C91.78039552 17.73641652 83.36552139 24.27808234 74.34594727 29.16821289 C68.06357348 32.12628127 61.43821779 32.23856242 54.61181641 32.22705078 C53.87927643 32.22719681 53.14673645 32.22734283 52.39199829 32.22749329 C49.99510634 32.22680225 47.59829423 32.21904815 45.20141602 32.21118164 C43.52990257 32.20931458 41.85838858 32.20789204 40.18687439 32.20689392 C35.80571967 32.20309142 31.42459855 32.19328068 27.04345703 32.18218994 C22.56551569 32.17192689 18.08756887 32.16738585 13.60961914 32.16235352 C4.83681733 32.15165622 -3.93595726 32.13460726 -12.70874023 32.11352539 C-12.79124023 33.28915039 -12.87374023 34.46477539 -12.95874023 35.67602539 C-13.91439259 42.60450497 -15.90662804 49.35560468 -17.70874023 56.11352539 C9.68125977 56.11352539 37.07125977 56.11352539 65.29125977 56.11352539 C63.30555699 66.04203927 58.41700752 74.39295144 50.04125977 80.23852539 C47.96313477 81.62133789 47.96313477 81.62133789 45.29125977 83.11352539 C44.7230098 83.4458316 44.15475983 83.77813782 43.56929016 84.12051392 C36.45653263 87.81842728 29.72757217 87.62832676 21.84985352 87.50415039 C20.47266976 87.49667456 19.09547525 87.49098798 17.71827698 87.48699951 C14.12268845 87.4718483 10.52776344 87.43266066 6.93243408 87.38818359 C3.2520037 87.3470011 -0.42853565 87.32893987 -4.10913086 87.30883789 C-11.30930061 87.26615327 -18.50892687 87.1980335 -25.70874023 87.11352539 C-25.69387573 88.50873413 -25.69387573 88.50873413 -25.67871094 89.93212891 C-25.81090154 103.93681003 -31.90235726 121.8181897 -41.51733398 132.03540039 C-48.16807446 138.29806949 -56.62286804 143.33162326 -65.95874023 143.17602539 C-67.81499023 143.14508789 -67.81499023 143.14508789 -69.70874023 143.11352539 C-68.24928685 132.57194249 -65.72229429 122.29186514 -63.25695801 111.95059204 C-62.00400889 106.69322626 -60.76362014 101.43291125 -59.52514648 96.17211914 C-59.27981171 95.13024948 -59.03447693 94.08837982 -58.78170776 93.01493835 C-56.74598915 84.33812812 -54.82867855 75.6397954 -52.95874023 66.92602539 C-51.88509311 61.98636105 -50.80141972 57.0490138 -49.70874023 52.11352539 C-49.42579102 50.83316406 -49.1428418 49.55280273 -48.85131836 48.23364258 C-48.00066981 44.41557591 -47.10691758 40.60819857 -46.20874023 36.80102539 C-45.96027344 35.67994385 -45.71180664 34.5588623 -45.45581055 33.40380859 C-42.1965876 19.93651126 -35.23342863 11.00649807 -23.53686523 3.76977539 C-16.07208274 -0.28088178 -8.30259274 -0.03031352 0 0 Z " fill="#FDFDFE" transform="translate(118.708740234375,130.886474609375)"/>
<path d="M0 0 C14.57789644 -0.07022317 29.15577036 -0.12305315 43.73380184 -0.15543652 C50.50333768 -0.1708754 57.27276814 -0.19190752 64.04223633 -0.22631836 C70.57799952 -0.25952525 77.11369446 -0.27686549 83.64953804 -0.28463173 C86.1401396 -0.29016471 88.63073533 -0.30096924 91.12129021 -0.31719017 C94.61606544 -0.3390415 98.11039179 -0.34196363 101.60522461 -0.34057617 C103.14163857 -0.35675491 103.14163857 -0.35675491 104.70909119 -0.3732605 C111.78620897 -0.34295854 118.38232977 0.46763084 124.3046875 4.61328125 C125.08199219 5.45439453 125.08199219 5.45439453 125.875 6.3125 C126.40867187 6.86550781 126.94234375 7.41851562 127.4921875 7.98828125 C133.87211587 16.50036184 132 19.93212957 132 32 C114.18 32 96.36 32 78 32 C77.67 34.97 77.34 37.94 77 41 C76.59664291 42.99549844 76.15093332 44.98317224 75.65234375 46.95703125 C75.24483887 48.59973999 75.24483887 48.59973999 74.82910156 50.27563477 C74.53487305 51.44280029 74.24064453 52.60996582 73.9375 53.8125 C73.30305309 56.3795364 72.67067465 58.94694461 72.04296875 61.515625 C71.87834137 62.18896378 71.71371399 62.86230255 71.5440979 63.55604553 C69.1206823 73.53877192 66.9495147 83.57979705 64.75366211 93.61450195 C63.8485042 97.74593128 62.92899269 101.87385842 62 106 C61.73912598 107.16160645 61.47825195 108.32321289 61.20947266 109.52001953 C58.45470846 121.2201302 52.86915397 129.93458295 43 137 C37.10864631 140.47416593 31.67790068 143.17796501 24.75 143.0625 C22.89375 143.0315625 22.89375 143.0315625 21 143 C22.25294109 135.79762353 23.69419988 128.66947697 25.35546875 121.55078125 C25.5779277 120.58716171 25.80038666 119.62354218 26.02958679 118.63072205 C26.50281542 116.58117503 26.97708509 114.53186815 27.45233154 112.48278809 C28.69923386 107.10573535 29.93832972 101.72689089 31.17578125 96.34765625 C31.42070313 95.28304169 31.665625 94.21842712 31.91796875 93.12155151 C33.96999139 84.17841192 35.94140853 75.21937396 37.875 66.25 C40.35362338 54.77063769 43.03615097 43.36369765 46 32 C45.25951416 32.01571045 44.51902832 32.0314209 43.75610352 32.04760742 C40.35831527 32.11047539 36.96064996 32.14915441 33.5625 32.1875 C32.39783203 32.21263672 31.23316406 32.23777344 30.03320312 32.26367188 C19.87586674 32.34950852 12.15715053 31.12424612 4.6640625 23.9296875 C0.07721524 18.61066743 -0.1265578 13.61287303 -0.0625 6.72265625 C-0.05347656 5.46332275 -0.04445313 4.20398926 -0.03515625 2.90649414 C-0.02355469 1.94735107 -0.01195312 0.98820801 0 0 Z " fill="#FDFEFD" transform="translate(489,131)"/>
<path d="M0 0 C22.44 0 44.88 0 68 0 C67.37521673 5.62304947 66.77664927 10.58700712 65.5 16 C65.2421875 17.11375 64.984375 18.2275 64.71875 19.375 C64 22 64 22 63 23 C60.88318683 23.0942174 58.76319242 23.11742761 56.64428711 23.11352539 C55.98089828 23.11367142 55.31750946 23.11381744 54.63401794 23.1139679 C52.43176044 23.11326881 50.22958655 23.10547665 48.02734375 23.09765625 C46.50419664 23.09579206 44.98104893 23.09436816 43.457901 23.09336853 C39.44162349 23.08954346 35.42538192 23.07971328 31.40911865 23.06866455 C27.31376634 23.05845019 23.21840824 23.05387086 19.12304688 23.04882812 C11.08201472 23.038091 3.04101183 23.02101472 -5 23 C-3.89044553 15.23311874 -1.90287021 7.61148084 0 0 Z " fill="#F27229" transform="translate(313,163)"/>
<path d="M0 0 C6.49277533 6.88206378 8.54515066 13.23980097 8.375 22.640625 C7.6227156 29.37983938 4.66716069 34.74389441 -0.1875 39.4375 C-6.71706594 44.40166244 -14.22627565 45.7571974 -22.2578125 44.69921875 C-29.32493466 42.89720327 -35.26767242 38.94123918 -39.10546875 32.703125 C-42.57259978 26.10194976 -43.39581065 18.66949026 -41.2421875 11.46484375 C-37.72335465 3.16649383 -33.18268808 -1.28974776 -25 -5 C-16.26443348 -7.60208364 -7.11243627 -5.53491695 0 0 Z M-30.875 6.9375 C-34.7682754 12.5483969 -35.90448789 17.2276469 -35 24 C-32.8262644 30.90408067 -28.83549325 34.65608746 -22.75 38.375 C-18.41735063 39.35969304 -14.30937435 39.03919145 -10 38 C-7.38565053 36.14660134 -7.38565053 36.14660134 -6 34 C-7.98 34 -9.96 34 -12 34 C-12.2475 33.319375 -12.495 32.63875 -12.75 31.9375 C-14.24197908 28.43134917 -16.06835511 25.28379632 -18 22 C-18.99 22 -19.98 22 -21 22 C-21 25.96 -21 29.92 -21 34 C-22.98 34 -24.96 34 -27 34 C-27 24.43 -27 14.86 -27 5 C-24.4425 5.12375 -21.885 5.2475 -19.25 5.375 C-18.45110352 5.40899902 -17.65220703 5.44299805 -16.82910156 5.47802734 C-10.05531499 5.85510715 -10.05531499 5.85510715 -7 8 C-5.49065783 11.01868434 -5.82489328 13.67297229 -6 17 C-8 20 -8 20 -11 21 C-10.51675181 26.15464734 -7.81389239 29.81550319 -5 34 C-1.13717823 30.52346041 0.71638432 27.53044117 1.30078125 22.31640625 C1.3323274 14.90306121 0.27369258 10.31677771 -4.8125 4.75 C-8.46206543 1.30769385 -11.93589272 0.26923138 -16.875 -0.375 C-22.49676924 0.29961231 -27.12802172 2.65997613 -30.875 6.9375 Z M-21 10 C-21 12.31 -21 14.62 -21 17 C-16.20691658 17.46522293 -16.20691658 17.46522293 -12.0625 15.5 C-11.711875 15.005 -11.36125 14.51 -11 14 C-11.66 12.68 -12.32 11.36 -13 10 C-15.64 10 -18.28 10 -21 10 Z " fill="#1468B1" transform="translate(677,301)"/>
</svg>
