<svg xmlns="http://www.w3.org/2000/svg" version="1.1" viewBox="0 0 449.43 513.31">
<path d="M0 0 C2.08777208 1.65990612 4.13728938 3.35533115 6.1875 5.0625 C7.06019531 5.77019531 7.93289063 6.47789063 8.83203125 7.20703125 C29.96245611 25.14293519 44.07306645 52.65987817 47.1875 80.0625 C47.53376608 86.64332462 47.42141861 93.24089948 47.3828125 99.828125 C47.37907486 101.71669361 47.37623144 103.60526419 47.37423706 105.49383545 C47.3666597 110.42569485 47.34706297 115.35743342 47.3248291 120.28924561 C47.3042425 125.33734504 47.29520814 130.3854643 47.28515625 135.43359375 C47.26381061 145.30994845 47.22974729 155.18621411 47.1875 165.0625 C48.19425781 165.04155273 49.20101563 165.02060547 50.23828125 164.99902344 C54.05518767 164.92537392 57.87203482 164.88025791 61.68945312 164.84277344 C63.32628007 164.82293699 64.96303895 164.79585888 66.59960938 164.76074219 C80.99899744 164.46001787 94.70271307 165.88528924 107.625 172.875 C108.28910889 173.22264404 108.95321777 173.57028809 109.63745117 173.9284668 C114.96110202 176.78733179 119.71790575 179.97624686 124.1875 184.0625 C125.07953125 184.86300781 125.9715625 185.66351563 126.890625 186.48828125 C141.7892377 200.55240881 150.94359426 219.6648985 151.54860592 240.23422718 C151.62471622 244.88175206 151.63033758 249.52774331 151.62109375 254.17578125 C151.62566396 256.20070062 151.630972 258.22561844 151.63697815 260.25053406 C151.64586181 264.47055412 151.64353737 268.6903844 151.63354492 272.91040039 C151.62201239 278.30487078 151.6423565 283.69869071 151.67146206 289.09307575 C151.68983695 293.26507178 151.68952984 297.43691187 151.68382454 301.60893822 C151.68367175 303.5979625 151.68968124 305.58699763 151.70211601 307.57598305 C151.71706321 310.35616322 151.70632477 313.13513965 151.68920898 315.9152832 C151.69887695 316.72636536 151.70854492 317.53744751 151.71850586 318.37310791 C151.63649522 324.76368087 149.94459151 330.26983311 145.37109375 334.90234375 C144.79488281 335.26457031 144.21867187 335.62679688 143.625 336 C143.04621094 336.38027344 142.46742188 336.76054687 141.87109375 337.15234375 C136.25188773 340.19010477 128.85827203 340.05816692 122.796875 338.4140625 C117.79050766 336.17839464 114.77749478 332.85343455 112.1875 328.0625 C111.00223137 324.50669412 111.02738005 321.26989026 111.01391602 317.56860352 C111.007229 316.8071553 111.00054199 316.04570709 110.99365234 315.26118469 C110.97960181 313.60627911 110.96770776 311.95135414 110.95770454 310.29641914 C110.94125622 307.66742667 110.91801105 305.03857496 110.89280701 302.40965271 C110.82217809 294.93406248 110.76225805 287.45841145 110.71069336 279.98266602 C110.67866054 275.40793943 110.63731482 270.83336988 110.59049797 266.2587719 C110.5746087 264.52428999 110.56222781 262.78977191 110.55359077 261.05523872 C110.47071191 244.63321936 110.00061776 229.5756921 98.20703125 216.8828125 C86.9637816 206.74866484 73.78151936 205.90829917 59.37261963 205.92878723 C57.6109721 205.9253889 57.6109721 205.9253889 55.81373572 205.92192191 C52.57131393 205.91670421 49.32892719 205.91593402 46.08650255 205.91711628 C42.58262775 205.91732104 39.0787611 205.91179443 35.57489014 205.90705872 C28.71654386 205.89876766 21.85820618 205.89600457 14.99985531 205.89544634 C9.42234442 205.89497043 3.84483635 205.89291197 -1.73267365 205.88974571 C-17.56183012 205.88094327 -33.39097982 205.87632568 -49.22013876 205.87707619 C-50.49900699 205.87713612 -50.49900699 205.87713612 -51.80371094 205.87719727 C-53.08414891 205.87725859 -53.08414891 205.87725859 -54.39045432 205.87732115 C-68.22021726 205.87772748 -82.04995296 205.86816017 -95.87970802 205.8540589 C-110.09557717 205.83967884 -124.31143305 205.83278962 -138.52730966 205.83365268 C-146.50216336 205.83398409 -154.4769885 205.83126152 -162.45183563 205.82047462 C-169.2423994 205.81134814 -176.03292166 205.80921196 -182.82348892 205.81598405 C-186.28421557 205.81923847 -189.74486269 205.81934517 -193.20558167 205.8106308 C-196.9670199 205.80288971 -200.72825114 205.80756989 -204.48968506 205.81526184 C-205.56986711 205.81011828 -206.65004917 205.80497471 -207.76296401 205.79967529 C-221.9592795 205.86354481 -234.31059417 208.11816847 -244.9921875 218.04296875 C-256.13328833 230.40337461 -255.9636385 245.15555048 -255.95776367 260.83496094 C-255.96075936 262.43241453 -255.96416282 264.0298674 -255.96794128 265.62731934 C-255.97674437 269.94983142 -255.97911785 274.27232368 -255.97975707 278.59484386 C-255.98046973 281.30059958 -255.98260815 284.00635032 -255.98525429 286.7121048 C-255.99449588 296.16647153 -255.99859071 305.62082421 -255.99780273 315.07519531 C-255.99720244 323.86382119 -256.00774792 332.6523856 -256.0235464 341.44099593 C-256.03665759 349.00646557 -256.04198512 356.5719152 -256.04134732 364.1373961 C-256.04109337 368.64699611 -256.0438878 373.15654145 -256.05452538 377.66613007 C-256.06426666 381.9113602 -256.06424456 386.15648408 -256.05700874 390.40171814 C-256.05597032 391.95119127 -256.05828116 393.50067123 -256.0643692 395.05013275 C-256.12278348 410.95983156 -255.12160348 425.09175465 -243.83203125 437.2421875 C-232.5887816 447.37633516 -219.40651936 448.21670083 -204.99761963 448.19621277 C-203.82318794 448.19847833 -202.64875625 448.20074388 -201.43873572 448.20307809 C-198.19631393 448.20829579 -194.95392719 448.20906598 -191.71150255 448.20788372 C-188.20762775 448.20767896 -184.7037611 448.21320557 -181.19989014 448.21794128 C-174.34154386 448.22623234 -167.48320618 448.22899543 -160.62485531 448.22955366 C-155.04734442 448.23002957 -149.46983635 448.23208803 -143.89232635 448.23525429 C-128.06316988 448.24405673 -112.23402018 448.24867432 -96.40486124 448.24792381 C-95.12599301 448.24786388 -95.12599301 448.24786388 -93.82128906 448.24780273 C-92.54085109 448.24774141 -92.54085109 448.24774141 -91.23454568 448.24767885 C-77.40478274 448.24727252 -63.57504704 448.25683983 -49.74529198 448.2709411 C-35.52942283 448.28532116 -21.31356695 448.29221038 -7.09769034 448.29134732 C0.87716336 448.29101591 8.8519885 448.29373848 16.82683563 448.30452538 C23.6173994 448.31365186 30.40792166 448.31578804 37.19848892 448.30901595 C40.65921557 448.30576153 44.11986269 448.30565483 47.58058167 448.3143692 C51.3420199 448.32211029 55.10325114 448.31743011 58.86468506 448.30973816 C59.94486711 448.31488172 61.02504917 448.32002529 62.13796401 448.32532471 C76.3342795 448.26145519 88.68559417 446.00683153 99.3671875 436.08203125 C107.14454903 427.45349926 109.34937446 417.55829968 110.77929688 406.37890625 C111.74305787 400.14545796 114.18776457 395.63646653 119.00390625 391.50390625 C125.50685404 388.23061038 132.53418721 387.76693186 139.55859375 389.72265625 C144.58694087 391.91839951 147.59881881 395.27399531 150.1875 400.0625 C155.03232507 414.5969752 149.86559178 432.3103392 143.375 445.5 C140.24082143 451.54804728 136.80030165 457.01696047 132.1875 462.0625 C131.38699219 462.95453125 130.58648437 463.8465625 129.76171875 464.765625 C115.99687439 479.34719673 96.98822073 488.78778756 76.75995159 489.44281673 C74.46907708 489.46034867 72.17804186 489.46199651 69.88713074 489.45018005 C67.97630053 489.45825836 67.97630053 489.45825836 66.02686769 489.46649987 C62.52976276 489.48082348 59.03289612 489.47675132 55.53577888 489.46933305 C51.74900469 489.46457084 47.96227983 489.47713807 44.17552185 489.48735046 C36.77172633 489.50448486 29.36801589 489.50538959 21.9642057 489.50013756 C15.94157043 489.49608431 9.91896016 489.49755308 3.89632607 489.50288582 C3.03679429 489.50363424 2.17726252 489.50438266 1.29168433 489.50515376 C-0.45486803 489.50668536 -2.20142039 489.50822371 -3.94797274 489.50976873 C-20.30119244 489.52347459 -36.65436421 489.51806975 -53.00758281 489.50658352 C-67.94013763 489.49665493 -82.87256847 489.50958874 -97.80510417 489.53351771 C-113.16925446 489.55795121 -128.53334711 489.56750604 -143.89751643 489.56086498 C-152.51072749 489.55738196 -161.12384328 489.55954387 -169.73703957 489.57711601 C-177.06978962 489.59189136 -184.40237733 489.59240429 -191.73512439 489.5750451 C-195.46986497 489.566576 -199.20431621 489.56428407 -202.93904114 489.57969666 C-237.60471488 489.71259012 -237.60471488 489.71259012 -253.25 481.25 C-253.91410889 480.90235596 -254.57821777 480.55471191 -255.26245117 480.1965332 C-260.58610202 477.33766821 -265.34290575 474.14875314 -269.8125 470.0625 C-270.70453125 469.26199219 -271.5965625 468.46148437 -272.515625 467.63671875 C-287.08348579 453.88481738 -296.5192081 434.94047263 -297.16173923 414.73958528 C-297.23037024 410.6869163 -297.2280886 406.63587594 -297.21655273 402.58276367 C-297.22226696 400.75460903 -297.22923525 398.92645794 -297.23735046 397.09831238 C-297.25518249 392.16836092 -297.25413214 387.23858842 -297.24840808 382.30861449 C-297.24530121 378.17635663 -297.25142537 374.04413241 -297.25744683 369.91187936 C-297.27145829 360.15403327 -297.26995947 350.39627479 -297.25854492 340.63842773 C-297.24707189 330.60967653 -297.26113349 320.58119301 -297.2879414 310.55247706 C-297.31017572 301.90743141 -297.31671828 293.26246931 -297.31086498 284.61739713 C-297.30751207 279.46942149 -297.30979857 274.32161729 -297.32711601 269.173666 C-297.34270651 264.32826814 -297.33849691 259.48326333 -297.31981087 254.63788033 C-297.31615797 252.87239018 -297.31913552 251.10687011 -297.32969666 249.34140778 C-297.40826148 235.10750226 -295.9040322 221.38888797 -289 208.625 C-288.65235596 207.96089111 -288.30471191 207.29678223 -287.9465332 206.61254883 C-285.08766821 201.28889798 -281.89875314 196.53209425 -277.8125 192.0625 C-276.61173828 190.72445312 -276.61173828 190.72445312 -275.38671875 189.359375 C-262.29036248 175.48595562 -243.84068008 165.56809457 -224.48193359 164.82348633 C-219.81990909 164.73392213 -215.16174183 164.79890751 -210.5 164.875 C-208.87305941 164.89008981 -207.24610511 164.90377053 -205.61914062 164.91601562 C-201.68324729 164.94864519 -197.74803062 165.00018344 -193.8125 165.0625 C-193.81694122 164.21963943 -193.82138245 163.37677887 -193.82595825 162.50837708 C-193.86645998 154.4652008 -193.8966963 146.42206001 -193.91612434 138.37880421 C-193.92644902 134.24622469 -193.94039395 130.1137312 -193.96337891 125.98120117 C-194.17812502 86.28508758 -192.33177899 49.30442118 -164.8125 18.0625 C-164.0803125 17.19753906 -163.348125 16.33257812 -162.59375 15.44140625 C-123.04026163 -30.30972379 -47.60387195 -36.61294692 0 0 Z M-125.8125 37.0625 C-126.61945313 37.77792969 -127.42640625 38.49335937 -128.2578125 39.23046875 C-144.25525979 54.22501797 -150.85275549 72.50531036 -152.8125 94.0625 C-152.8125 117.4925 -152.8125 140.9225 -152.8125 165.0625 C-100.3425 165.0625 -47.8725 165.0625 6.1875 165.0625 C6.27 151.841875 6.3525 138.62125 6.4375 125 C6.47391602 120.8555835 6.51033203 116.71116699 6.54785156 112.44116211 C6.56124525 108.66261186 6.56124525 108.66261186 6.5692749 104.88404846 C6.57533928 103.22633036 6.58924156 101.56862769 6.60980225 99.911026 C6.86071732 78.57958453 1.85715194 60.27632583 -12.8125 44.0625 C-13.81023437 42.92554688 -13.81023437 42.92554688 -14.828125 41.765625 C-23.805872 32.1228597 -35.37429095 25.26348451 -47.8125 21.0625 C-48.73417969 20.74410156 -49.65585937 20.42570312 -50.60546875 20.09765625 C-76.17465006 12.76804946 -106.11462253 19.11141544 -125.8125 37.0625 Z "  transform="translate(297.3325,23.7075)"/>
<path d="M0 0 C4.89872999 2.85759249 7.79346527 7.1303958 9.5625 12.4375 C10.22384489 19.75566066 10.30340673 26.48380318 5.5625 32.4375 C-0.31091297 37.77696633 -5.52093201 38.80560469 -13.359375 38.7109375 C-18.60956546 38.24455002 -22.43333677 36.64207956 -26 32.71875 C-30.78040344 26.30866357 -31.13555921 20.29565224 -30.4375 12.4375 C-28.90478311 6.78676061 -25.94904415 3.51969493 -21.12109375 0.34765625 C-14.98998289 -2.96684219 -6.30251123 -2.81448021 0 0 Z "  transform="translate(348.9575,328.3325)"/>
<path d="M0 0 C4.89872999 2.85759249 7.79346527 7.1303958 9.5625 12.4375 C10.22384489 19.75566066 10.30340673 26.48380318 5.5625 32.4375 C-0.31091297 37.77696633 -5.52093201 38.80560469 -13.359375 38.7109375 C-18.60956546 38.24455002 -22.43333677 36.64207956 -26 32.71875 C-30.78040344 26.30866357 -31.13555921 20.29565224 -30.4375 12.4375 C-28.90478311 6.78676061 -25.94904415 3.51969493 -21.12109375 0.34765625 C-14.98998289 -2.96684219 -6.30251123 -2.81448021 0 0 Z "  transform="translate(272.9575,328.3325)"/>
<path d="M0 0 C4.89872999 2.85759249 7.79346527 7.1303958 9.5625 12.4375 C10.22384489 19.75566066 10.30340673 26.48380318 5.5625 32.4375 C-0.31091297 37.77696633 -5.52093201 38.80560469 -13.359375 38.7109375 C-18.60956546 38.24455002 -22.43333677 36.64207956 -26 32.71875 C-30.78040344 26.30866357 -31.13555921 20.29565224 -30.4375 12.4375 C-28.90478311 6.78676061 -25.94904415 3.51969493 -21.12109375 0.34765625 C-14.98998289 -2.96684219 -6.30251123 -2.81448021 0 0 Z "  transform="translate(197.9575,328.3325)"/>
<path d="M0 0 C4.89872999 2.85759249 7.79346527 7.1303958 9.5625 12.4375 C10.22384489 19.75566066 10.30340673 26.48380318 5.5625 32.4375 C-0.31091297 37.77696633 -5.52093201 38.80560469 -13.359375 38.7109375 C-18.60956546 38.24455002 -22.43333677 36.64207956 -26 32.71875 C-30.78040344 26.30866357 -31.13555921 20.29565224 -30.4375 12.4375 C-28.90478311 6.78676061 -25.94904415 3.51969493 -21.12109375 0.34765625 C-14.98998289 -2.96684219 -6.30251123 -2.81448021 0 0 Z "  transform="translate(122.9575,328.3325)"/>
</svg>