<svg xmlns="http://www.w3.org/2000/svg" version="1.1" viewBox="0 0 620.32 678.19">
<path d="M0 0 C1.05605942 0.00090637 1.05605942 0.00090637 2.13345337 0.00183105 C13.340286 0.02785987 24.3550984 0.42542448 35.4375 2.1875 C36.26717285 2.31640625 37.0968457 2.4453125 37.95166016 2.578125 C50.84848825 4.64659715 63.11628221 7.88057432 75.4375 12.1875 C76.10523438 12.41663086 76.77296875 12.64576172 77.4609375 12.88183594 C86.10549435 15.87184581 94.47057621 19.4408045 102.8125 23.1875 C104.16758667 23.79223145 104.16758667 23.79223145 105.55004883 24.40917969 C110.97226814 26.88671452 116.05172657 29.67757467 121.12841797 32.79931641 C124.27818297 34.69290531 127.5018181 36.27711123 130.8125 37.875 C137.07164283 40.9348075 143.17052733 44.22355861 149.25 47.625 C158.78185446 52.93167666 168.50657861 57.67865977 178.4375 62.1875 C179.613125 62.73019531 180.78875 63.27289063 182 63.83203125 C215.20004843 78.67026044 249.83607256 83.27189632 285.875 84.375 C288.27542508 84.45667583 290.67581629 84.53935338 293.07617188 84.62304688 C298.86294381 84.82268922 304.65000301 85.01018561 310.4375 85.1875 C310.85999402 148.32113541 310.85999402 148.32113541 308.4375 178.1875 C308.27126837 180.40551385 308.10902124 182.62380109 307.94667053 184.84210205 C306.10093262 209.89703361 303.72319341 235.02627976 298.91210938 259.70849609 C298.33061843 262.74576927 297.78421641 265.78887054 297.234375 268.83203125 C290.36607001 306.2331848 280.75909212 343.16213891 267.33544922 378.76367188 C266.46294572 381.11881455 265.63098759 383.4836387 264.81640625 385.859375 C264.56076904 386.60340576 264.30513184 387.34743652 264.04174805 388.11401367 C263.37547006 390.06555908 262.7147856 392.01901188 262.0546875 393.97265625 C260.3381017 398.69002724 258.16512831 403.19367019 256.03857422 407.73706055 C254.4846706 411.08584369 252.98618275 414.45321324 251.5078125 417.8359375 C246.23630465 429.88610677 240.8955136 441.72452585 234.4375 453.1875 C233.47726163 454.95730104 232.5188505 456.72809504 231.5625 458.5 C231.07910156 459.37785156 230.59570312 460.25570313 230.09765625 461.16015625 C228.84050756 463.45260387 227.60163751 465.75195147 226.37109375 468.05859375 C219.44788676 480.91220723 211.56639773 493.06833431 203.4375 505.1875 C202.90914551 505.97527832 202.38079102 506.76305664 201.83642578 507.57470703 C192.09531428 522.03781355 181.5339826 535.74361903 170.4375 549.1875 C169.96554199 549.76145508 169.49358398 550.33541016 169.00732422 550.92675781 C157.71209957 564.62756003 145.4042685 577.30953536 132.875 589.875 C132.3461319 590.40654694 131.81726379 590.93809387 131.27236938 591.48574829 C129.74574527 593.01824073 128.21536542 594.54687316 126.68359375 596.07421875 C125.79341553 596.96326904 124.9032373 597.85231934 123.98608398 598.76831055 C117.22355308 605.1875 117.22355308 605.1875 114.4375 605.1875 C114.19515625 605.77402344 113.9528125 606.36054687 113.703125 606.96484375 C112.19658947 609.61058052 110.60192998 610.89920351 108.1875 612.75 C107.30578125 613.43191406 106.4240625 614.11382813 105.515625 614.81640625 C104.49984375 615.59886719 103.4840625 616.38132812 102.4375 617.1875 C101.20127833 618.17347031 99.96699194 619.16187066 98.734375 620.15234375 C97.46879882 621.16412358 96.20317418 622.17584277 94.9375 623.1875 C94.32616211 623.68064697 93.71482422 624.17379395 93.08496094 624.68188477 C88.66373232 628.1875 88.66373232 628.1875 86.4375 628.1875 C86.4375 628.8475 86.4375 629.5075 86.4375 630.1875 C84.11733693 631.94362869 81.7945841 633.57803587 79.375 635.1875 C78.64692139 635.67806885 77.91884277 636.1686377 77.16870117 636.67407227 C75.65631168 637.69188501 74.14204257 638.70690996 72.62597656 639.71923828 C70.66383705 641.03564915 68.71611088 642.36995719 66.7734375 643.71484375 C56.37341629 650.86422683 45.47299715 657.07796236 34.4375 663.1875 C33.27154297 663.8364624 33.27154297 663.8364624 32.08203125 664.49853516 C7.36749212 678.1875 7.36749212 678.1875 -1.5625 678.1875 C-4.44318074 677.34010672 -7.17657828 676.1135318 -9.9375 674.9375 C-10.77039551 674.58324951 -11.60329102 674.22899902 -12.46142578 673.86401367 C-34.86815567 664.08211072 -56.21833313 650.93345733 -75.86376953 636.42431641 C-77.73407193 635.06258143 -79.62755248 633.73822495 -81.52734375 632.41796875 C-82.180979 631.96123779 -82.83461426 631.50450684 -83.50805664 631.03393555 C-84.76834302 630.154462 -86.03173451 629.27941687 -87.29858398 628.40942383 C-88.75591142 627.38486193 -90.16482193 626.29204802 -91.5625 625.1875 C-91.5625 624.5275 -91.5625 623.8675 -91.5625 623.1875 C-92.65498047 622.81818359 -92.65498047 622.81818359 -93.76953125 622.44140625 C-96.85146422 621.05776921 -98.79023713 619.42606849 -101.25 617.125 C-104.17681801 614.32456887 -104.17681801 614.32456887 -107.5625 612.1875 C-107.5625 611.5275 -107.5625 610.8675 -107.5625 610.1875 C-108.11292969 609.95546875 -108.66335938 609.7234375 -109.23046875 609.484375 C-112.20262074 607.83151996 -114.38952151 605.7614052 -116.875 603.4375 C-117.38699951 602.96086914 -117.89899902 602.48423828 -118.42651367 601.99316406 C-119.54267481 600.95312375 -120.65693579 599.91104137 -121.76953125 598.8671875 C-123.65286872 597.10284085 -125.54439065 595.34760479 -127.4375 593.59375 C-128.75022445 592.37524177 -130.06272773 591.1564952 -131.375 589.9375 C-131.98448486 589.37192383 -132.59396973 588.80634766 -133.22192383 588.22363281 C-135.01143247 586.55442931 -136.79032988 584.87509696 -138.5625 583.1875 C-139.22427246 582.55779297 -139.88604492 581.92808594 -140.56787109 581.27929688 C-141.53007568 580.3444043 -141.53007568 580.3444043 -142.51171875 579.390625 C-143.38896606 578.54226074 -143.38896606 578.54226074 -144.28393555 577.67675781 C-145.5625 576.1875 -145.5625 576.1875 -145.5625 574.1875 C-146.5525 573.8575 -147.5425 573.5275 -148.5625 573.1875 C-149.9296875 571.8671875 -149.9296875 571.8671875 -151.4375 570.0625 C-152.0459375 569.34449219 -152.654375 568.62648438 -153.28125 567.88671875 C-154.0340625 566.99597656 -154.786875 566.10523438 -155.5625 565.1875 C-156.5710381 564.02571032 -157.58160866 562.86568317 -158.59375 561.70703125 C-169.46742073 549.25718593 -179.76204567 536.49802271 -189.5625 523.1875 C-190.20638672 522.31569092 -190.20638672 522.31569092 -190.86328125 521.42626953 C-211.73367039 493.06076049 -230.04903935 462.15811566 -244.66308594 430.11962891 C-245.9507422 427.35347482 -247.34983434 424.64807711 -248.75 421.9375 C-251.78611296 415.90675103 -254.26391718 409.68858217 -256.69677734 403.39746094 C-257.61630972 401.05013803 -258.56586207 398.71646451 -259.51953125 396.3828125 C-269.19465788 372.49525848 -277.55688187 347.83000635 -283.87866211 322.83740234 C-284.39177607 320.84906286 -284.92454206 318.86577776 -285.46704102 316.88525391 C-288.15533791 307.05231364 -290.41390379 297.16451493 -292.5 287.1875 C-292.67269409 286.36457458 -292.84538818 285.54164917 -293.02331543 284.69378662 C-296.38751555 268.59556643 -299.23027813 252.47072602 -301.5625 236.1875 C-301.74264648 234.95032227 -301.92279297 233.71314453 -302.10839844 232.43847656 C-305.26651924 210.36589628 -306.91110706 188.23364122 -308.26342773 165.98657227 C-308.44178804 163.05465026 -308.64244108 160.1282969 -308.86352539 157.19897461 C-309.84947347 143.3705099 -309.67746626 129.52635099 -309.63116455 115.67004395 C-309.62077502 112.22339501 -309.61633409 108.77673833 -309.61132812 105.33007812 C-309.60040937 98.61586581 -309.58375673 91.90168714 -309.5625 85.1875 C-308.6376606 85.16323944 -308.6376606 85.16323944 -307.69413757 85.13848877 C-252.64520528 83.66705653 -204.58580417 77.61289334 -155.5625 51.3125 C-152.19935668 49.51331369 -148.80121092 47.80165641 -145.375 46.125 C-141.09109648 44.00927622 -136.9408173 41.7141578 -132.8125 39.3125 C-125.92546633 35.31976884 -118.88286339 31.71717001 -111.72363281 28.23925781 C-110.24940732 27.52179697 -108.77748762 26.79958353 -107.30761719 26.07324219 C-73.39258989 9.32313803 -37.94532606 -0.06048224 0 0 Z M-76.5625 75.1875 C-77.88065358 75.79223575 -79.1997394 76.39494181 -80.51953125 76.99609375 C-89.84723917 81.27120494 -98.71054504 86.00216364 -107.5625 91.1875 C-115.05138958 95.42127565 -122.69845824 99.30641754 -130.40625 103.12109375 C-133.08396569 104.4468622 -135.75004243 105.79182755 -138.40625 107.16015625 C-173.79385153 125.32178391 -211.81064242 137.07236295 -251.5625 140.1875 C-252.64218928 180.01603805 -246.8973024 220.14446292 -239.5625 259.1875 C-239.4314386 259.89241577 -239.3003772 260.59733154 -239.16534424 261.3236084 C-230.92628985 305.60359655 -218.95160936 351.08750361 -199.23046875 391.703125 C-197.76827146 394.75764487 -196.41538178 397.82732081 -195.09643555 400.94433594 C-184.42957592 426.06237516 -170.26722379 450.88266715 -154.5625 473.1875 C-153.98886719 474.02925781 -153.41523438 474.87101562 -152.82421875 475.73828125 C-140.92559797 493.08925332 -127.80871947 509.71044907 -113.5625 525.1875 C-111.97787206 526.95717495 -110.39454 528.72801112 -108.8125 530.5 C-105.81690689 533.82843678 -102.77433977 537.06487801 -99.5625 540.1875 C-89.5625 550.1875 -89.5625 550.1875 -87.52734375 552.2578125 C-86.77582031 553.01835938 -86.02429688 553.77890625 -85.25 554.5625 C-84.20392578 555.62597656 -84.20392578 555.62597656 -83.13671875 556.7109375 C-66.4085483 572.8045036 -47.54690384 586.79801354 -28.15234375 599.48828125 C-26.50551613 600.56877901 -24.87096853 601.66841275 -23.25390625 602.79296875 C-18.11699559 606.35492641 -12.79801401 609.18283435 -7.1640625 611.890625 C-4.5625 613.1875 -4.5625 613.1875 -1.5625 615.1875 C3.61625807 614.94939618 7.55984997 612.75442887 11.9375 610.1875 C12.63601074 609.78523193 13.33452148 609.38296387 14.05419922 608.96850586 C24.81035415 602.71620163 35.08136979 595.85776732 45.1484375 588.5546875 C48.95078136 585.79926901 52.83913494 583.17290171 56.7421875 580.5625 C57.30164063 580.10875 57.86109375 579.655 58.4375 579.1875 C58.4375 578.5275 58.4375 577.8675 58.4375 577.1875 C59.47970703 576.87039063 59.47970703 576.87039063 60.54296875 576.546875 C64.30281706 574.78111628 66.79601757 572.31179806 69.75 569.4375 C73.92427802 565.46993355 78.09684388 561.790217 82.78125 558.42578125 C85.28697035 556.55240071 87.35870631 554.5261429 89.4375 552.1875 C89.4375 551.5275 89.4375 550.8675 89.4375 550.1875 C90.03135498 549.9188916 90.62520996 549.6502832 91.23706055 549.37353516 C93.44737445 548.18217768 94.88397183 546.98538102 96.64453125 545.2109375 C97.22750977 544.62675049 97.81048828 544.04256348 98.41113281 543.44067383 C99.32137207 542.51097778 99.32137207 542.51097778 100.25 541.5625 C100.87874023 540.92658936 101.50748047 540.29067871 102.15527344 539.63549805 C105.81116948 535.91550513 109.37056956 532.14562138 112.7421875 528.1640625 C114.8737317 525.67889806 117.09433599 523.28309854 119.3125 520.875 C127.61121767 511.76022084 135.14850439 502.12139521 142.4375 492.1875 C143.18386719 491.176875 143.93023438 490.16625 144.69921875 489.125 C160.33790571 467.72865614 174.9519748 445.09277972 186.4375 421.1875 C187.06180068 419.94885029 187.68953034 418.71192411 188.3203125 417.4765625 C206.81519134 381.2233063 221.29217453 342.50730314 230.77636719 302.92138672 C231.34850146 300.55552276 231.94743829 298.20054955 232.5703125 295.84765625 C235.49911236 284.67440008 237.69100319 273.3587279 239.88671875 262.02246094 C240.34336011 259.67205339 240.80921051 257.32390739 241.28125 254.9765625 C248.60896394 217.62115121 253.43016673 178.29487282 252.4375 140.1875 C251.85073486 140.11756836 251.26396973 140.04763672 250.65942383 139.97558594 C232.49179628 137.78157286 214.12581074 135.49174961 196.63769531 129.88916016 C194.97340744 129.35840524 193.30540793 128.83927021 191.63574219 128.32568359 C168.05029851 121.04636135 146.02211227 111.10800815 124.4375 99.1875 C117.56426581 95.40077178 110.65054479 91.76564709 103.61645508 88.28881836 C99.66314103 86.32679636 95.75918746 84.29905761 91.88647461 82.18261719 C38.83534288 53.23918084 -21.42007587 48.75741954 -76.5625 75.1875 Z " transform="translate(309.6725,0.0025)"/>
<path d="M0 0 C0.88300781 0.73089844 1.76601563 1.46179688 2.67578125 2.21484375 C15.61373897 13.38585732 25.64398557 28.15739688 32 44 C32.34546875 44.79921875 32.6909375 45.5984375 33.046875 46.421875 C41.52649927 67.42525205 43.05083883 92.20239986 37 114 C36.74259033 114.96510498 36.74259033 114.96510498 36.47998047 115.94970703 C31.14014958 135.71996563 21.15796464 152.26261688 7 167 C6.29617188 167.74378906 5.59234375 168.48757813 4.8671875 169.25390625 C1.15977751 173.08113747 -2.42375361 176.21836004 -7 179 C-7.75539063 179.51046875 -8.51078125 180.0209375 -9.2890625 180.546875 C-18.9408232 186.98138213 -33.10926911 196 -45 196 C-45 206.56 -45 217.12 -45 228 C-63.48 228 -81.96 228 -101 228 C-101 200.28 -101 172.56 -101 144 C-96.70559314 143.14111863 -92.98777836 142.81125331 -88.63671875 142.67578125 C-66.32255931 141.84322046 -47.76925415 140.44124932 -31.25 123.375 C-22.06574486 112.17684795 -17.9074539 98.32922175 -18 84 C-19.61531538 67.89435552 -25.65251806 54.69238571 -38 44 C-50.85933614 34.09186026 -64.00101491 31.07698163 -80 32 C-95.71087577 34.29441008 -107.91325913 42.38093945 -117.875 54.5 C-124.55615202 63.64345453 -126.17434504 73.06932698 -128 84 C-128.32888619 85.66754993 -128.66132995 87.33440957 -129 89 C-148.04976605 88.45779909 -166.99793126 87.43707851 -186 86 C-186.19660339 78.8911912 -185.83646852 72.27324374 -184.375 65.3125 C-184.19751221 64.45454834 -184.02002441 63.59659668 -183.8371582 62.71264648 C-177.68196529 34.53246544 -161.10054996 9.04431408 -137 -7 C-132.44205603 -9.87081708 -127.74549951 -12.45522589 -123 -15 C-122.319375 -15.39832031 -121.63875 -15.79664063 -120.9375 -16.20703125 C-83.33094331 -37.27677618 -31.70668487 -26.30785541 0 0 Z " transform="translate(383.11,195.19)"/>
<path d="M0 0 C18.48 0 36.96 0 56 0 C56 18.81 56 37.62 56 57 C37.52 57 19.04 57 0 57 C0 38.19 0 19.38 0 0 Z " transform="translate(282.11,450.19)"/>
</svg>