<?xml version="1.0" encoding="UTF-8"?>
<svg xmlns="http://www.w3.org/2000/svg" viewBox="0 0 500.0 500.0" width="32" height="32">
<path fill="#7c3aed" fill-rule="evenodd" d="M19.5,471.9230215067628 L6.5,448.8463894127011 L6.169958431914738,447.38831402800037 L5.839916863829476,445.9302386432996 L19.125572476673113,422.4651193216498 L32.41122808951675,399.0 L47.70561404475838,399.0 L63.0,399.0 L63.0,399.5066820951382 L63.0,400.01336419027643 L56.46976812444117,411.51593477302805 L49.939536248882334,423.01850535577967 L51.026905931431095,425.0502741927504 L52.114275613979856,427.0820430297211 L162.30713780698994,426.74187175233465 L272.5,426.40170047494814 L284.51358330500216,423.74133721402706 L296.5271666100043,421.08097395310597 L303.28248061181523,418.9944699770357 L310.03779461362615,416.90796600096536 L318.1075118711036,413.4539830004827 L326.177229128581,410.0 L326.9470003910017,410.0 L327.7167716534224,410.0 L328.28707948312837,420.75 L328.8573873128343,431.5 L330.99904911291026,438.5 L333.14071091298615,445.5 L333.3203554564931,447.44046246612345 L333.5,449.3809249322469 L325.0915445333276,452.6768633380143 L316.6830890666552,455.97280174378164 L307.4699552658094,458.48273648770146 L298.2568214649636,460.9926712316212 L286.8784107324818,463.17857667548435 L275.5,465.3644821193475 L164.12164008468295,465.93224105967374 L52.74328016936592,466.5 L51.395669976301704,468.5301093179223 L50.04805978323749,470.56021863584465 L56.50220392037093,482.0301093179223 L62.956348057504364,493.5 L62.97817402875218,494.25 L63.0,495.0 L47.75,494.9998268004122 L32.5,494.99965360082444 L19.5,471.9230215067628 z M399.62673583835624,492.5154459442141 L392.7534716767124,491.08064561025355 L385.8631921458159,488.4477228001761 L378.9729126149193,485.81479999009866 L371.73645630745966,481.0663176648817 L364.5,476.3178353396648 L360.35361870450595,472.2605872783307 L356.20723740901184,468.2033392169967 L352.0136521266036,462.8980557132912 L347.82006684419537,457.59277220958575 L344.5255323145863,451.0463861047929 L341.23099778497726,444.5 L339.0140566993226,437.5 L336.79711561366804,430.5 L336.26790958119716,418.9107490042181 L335.7387035487262,407.32149800843615 L336.9329672809738,400.46352879639517 L338.1272310132213,393.60555958435424 L341.04804119315725,386.05277979217715 L343.96885137309323,378.5 L348.22184191849544,372.0 L352.47483246389766,365.5 L358.7420985174698,359.22679919596067 L365.00936457104194,352.95359839192133 L371.75468228552097,348.62053253217425 L378.5,344.28746667242723 L385.15495550201155,341.64997428382924 L391.8099110040231,339.0124818952313 L398.97033156633734,337.50624094761565 L406.1307521286516,335.99999999999994 L414.60753439640985,336.0 L423.0843166641681,336.0 L430.53364390467664,337.5387008044753 L437.9829711451852,339.0774016089506 L444.7745572701914,341.84125765502375 L451.5661433951976,344.6051137010969 L457.5330716975988,348.4990739037416 L463.5,352.39303410638627 L471.0,359.9890626163664 L478.5,367.5850911263466 L481.8328019056438,373.22776748585807 L485.16560381128767,378.87044384536955 L487.981983688682,385.79109607153487 L490.79836356607643,392.71174829770024 L492.0791818920996,398.60587414885015 L493.36000021812276,404.5 L493.288163324322,415.5 L493.2163264305212,426.5 L491.1162981920688,434.3781550793415 L489.01626995361653,442.25631015868305 L485.48563978948675,449.59679275303984 L481.955009625357,456.9372753473967 L475.7892240109644,464.60179029008714 L469.62343839657177,472.26630523277754 L464.0617191982859,476.6428581421652 L458.5,481.0194110515528 L450.9726318452289,484.9445032420955 L443.4452636904578,488.8695954326382 L435.9726318452289,490.98644522272014 L428.5,493.1032950128021 L417.5,493.52677064548834 L406.5,493.95024627817463 L399.62673583835624,492.5154459442141 z M418.2053383862791,416.9218159122878 L426.04257318927915,394.5 L425.7712865946396,392.1008618984254 L425.5,389.70172379685084 L423.6873503506469,388.6008618984254 L421.8747007012938,387.5 L420.1072004930032,389.65102791545024 L418.33970028471253,391.8020558309005 L410.66985014235627,414.2285084984695 L403.0,436.6549611660386 L403.0,438.27779046944806 L403.0,439.9006197728575 L404.75,440.89251849722814 L406.5,441.8844172215988 L408.43405179163955,440.6140245230872 L410.3681035832791,439.34363182457565 L418.2053383862791,416.9218159122878 z M388.8,438.8 L390.0,437.6 L390.0,435.8909674365391 L390.0,434.18193487307815 L379.75,424.5509126048273 L369.5,414.91989033657643 L379.75,405.15017674890885 L390.0,395.3804631612413 L390.0,393.2254153391086 L390.0,391.070367516976 L388.1806581208941,390.0966852921415 L386.3613162417883,389.123003067307 L383.82464847771655,390.81150153365354 L381.2879807136448,392.5 L370.6439903568224,402.60920957449525 L360.0,412.71841914899056 L360.0,414.46485366558045 L360.0,416.2112881821703 L362.5625012510494,419.25664788958784 L365.1250025020989,422.30200759700546 L374.8125012510494,431.144991109892 L384.5,439.98797462277855 L386.05,439.9939873113893 L387.6,440.0 L388.8,438.8 z M457.0066151405888,428.75 L469.02014133266744,417.5 L469.6478916364837,415.52808432359944 L470.27564194029986,413.5561686471989 L458.38782097014996,402.2363203924549 L446.5,390.9164721377109 L444.5,390.0689957091756 L442.5,389.2215192806403 L440.75,390.76574720243224 L439.0,392.3099751242242 L439.0,393.38791305289897 L439.0,394.4658509815738 L449.25,404.7827111689825 L459.5,415.0995713563911 L449.25,425.0631351369099 L439.0,435.02669891742875 L439.0,436.31334945871436 L439.0,437.6 L440.2,438.8 L441.4,440.0 L443.19654447425506,440.0 L444.99308894851015,440.0 L457.0066151405888,428.75 z M104.66284086460291,411.01583694367923 L95.82568172920581,403.07314982417046 L88.79186217831906,395.28657491208526 L81.75804262743232,387.5 L74.52755355628516,377.87822977034034 L67.297064485138,368.25645954068074 L62.13016354895735,359.22745685425866 L56.9632626127767,350.19845416783664 L52.95515619490082,341.64537845512734 L48.947049777024944,333.0923027424181 L45.48812096055938,323.5368603703098 L42.02919214409381,313.98141799820144 L39.538967384240244,304.2407089991007 L37.048742624386676,294.5 L35.5243094088294,285.6186547132973 L33.99987619327213,276.7373094265946 L33.01801340238715,261.29127654242274 L32.036150611502165,245.84524365825084 L33.041062218970346,233.46985500811547 L34.04597382643853,221.09446635798014 L36.02731128597169,210.09104928759018 L38.00864874550486,199.08763221720025 L41.581149421379465,187.30162073048615 L45.15365009725407,175.51560924377205 L48.649627271281275,167.007804621886 L52.145604445308486,158.5 L57.148751421965876,149.08323569353877 L62.15189839862327,139.66647138707754 L65.68229503637917,134.14757299122417 L69.21269167413507,128.6286745953708 L69.94686398762452,130.0643372976854 L70.68103630111398,131.5 L72.45924083048945,138.27835469157603 L74.23744535986492,145.05670938315205 L75.86872267993246,145.87653274937014 L77.5,146.69635611558823 L88.25,149.5014316482592 L99.0,152.30650718093017 L99.0,153.272442857922 L99.0,154.2383785349138 L95.46014396049725,160.06561011791788 L91.9202879209945,165.89284170092196 L87.85078381552755,174.69642085046098 L83.7812797100606,183.5 L80.44722035038262,193.5 L77.11316099070466,203.5 L75.04243686330965,213.72648771606023 L72.97171273591464,223.95297543212047 L71.9215673657196,237.0490967211104 L70.87142199552457,250.14521801010036 L71.97663063079216,263.3226090050502 L73.08183926605975,276.5 L75.62096367926102,287.88318066204977 L78.16008809246229,299.26636132409953 L81.646251667982,309.2818514381398 L85.1324152435017,319.29734155218017 L90.69937683171696,330.39867077609006 L96.26633841993224,341.5 L100.29508512041404,347.5 L104.32383182089585,353.5 L110.54827736197623,361.5 L116.7727229030566,369.5 L125.6363614515283,378.1712944763731 L134.5,386.8425889527461 L139.74405851317192,390.9398515050472 L144.98811702634382,395.03711405734833 L153.44020675592398,400.5464644288693 L161.89229648550415,406.05581480039024 L173.1961482427521,411.518724193307 L184.5,416.9816335862238 L185.69098300562507,416.9908167931119 L186.8819660112501,417.0 L187.5,418.0 L188.11803398874991,419.0 L150.80901699437496,418.97926203159403 L113.5,418.95852406318807 L104.66284086460291,411.01583694367923 z M231.21849909066833,367.25 L229.21543025671707,365.5 L228.1739657306375,354.57721809193237 L227.1325012045579,343.65443618386473 L225.21690675088513,341.07721809193237 L223.30131229721235,338.5 L212.31066338254536,333.0 L201.32001446787837,327.5 L194.9722659921542,322.75 L188.62451751643005,318.0 L184.73360428399246,318.0 L180.84269105155485,318.0 L172.06144581799785,322.0799414133378 L163.28020058444085,326.15988282667564 L160.50731993561976,325.8299414133378 L157.7344392867987,325.5 L148.92054082692405,310.5 L140.1066423670494,295.5 L140.0533211835247,293.3445538425438 L140.0,291.1891076850876 L148.93857690569322,284.6531140390723 L157.87715381138645,278.11712039305695 L159.46866439119486,275.6881682343072 L161.06017497100325,273.25921607555756 L160.98252016719113,270.3796080377788 L160.90486536337897,267.5 L160.65973260366047,247.0 L160.41459984394194,226.5 L159.63421981496214,224.83836464838794 L158.8538397859823,223.17672929677587 L149.907618252401,216.93555146008117 L140.9613967188197,210.69437362338644 L140.41091016860918,208.50106050682209 L139.86042361839867,206.30774739025773 L148.61098533373345,191.09231039932155 L157.36154704906824,175.87687340838534 L159.29582357385556,174.84168002789463 L161.23010009864288,173.80648664740391 L171.00269601821793,178.403243323702 L180.775291937793,183.00000000000006 L184.6376459688965,182.99158283882878 L188.5,182.98316567765747 L196.8783652461305,176.9814017406533 L205.256730492261,170.97963780364913 L211.8783652461305,167.95716023598666 L218.5,164.9346826683242 L220.90284093185784,163.71734133416209 L223.30568186371568,162.5 L225.1923701157142,159.9585723436203 L227.07905836771275,157.41714468724055 L228.3294662796283,145.75196858117624 L229.57987419154384,134.08679247511193 L230.37074172978308,133.29339623755595 L231.16160926802232,132.5 L248.83080463401114,132.1964837532914 L266.5,131.8929675065828 L268.37579884949093,133.27505429845704 L270.2515976989818,134.65714109033127 L271.2238938648234,145.07857054516563 L272.19619003066504,155.5 L273.7487245788854,158.8273144752293 L275.30125912710577,162.15462895045854 L286.4006295635529,167.4160856140383 L297.5,172.67754227761804 L302.5210773308264,176.6810716858301 L307.5421546616529,180.68460109404216 L309.7053358767372,181.84230054702113 L311.86851709182145,183.00000000000009 L315.30930185066563,183.0 L318.7500866095098,182.99999999999991 L328.50317881642104,178.47328096100625 L338.2562710233323,173.94656192201256 L340.0014049174788,174.5004459034859 L341.7465388116252,175.05432988495923 L350.9534910147681,191.08025863663096 L360.16044321791094,207.10618738830266 L358.638443139149,209.42905311337444 L357.11644306038704,211.75191883844624 L349.08024479380083,217.38303105044002 L341.0440465272146,223.01414326243378 L339.4454755543918,226.10543865124004 L337.84690458156894,229.1967340400463 L338.804293094065,239.84836702002315 L339.76168160656107,250.5 L338.8104766278164,261.16359061570097 L337.85927164907173,271.827181231402 L339.41400050995634,274.8336953244294 L340.96872937084095,277.8402094174569 L349.167979076394,283.67010470872845 L357.367228781947,289.5 L358.3086143909735,290.1362712429687 L359.25,290.7725424859374 L359.25,293.136395504616 L359.25,295.50024852329466 L350.4796321900492,310.75012426164733 L341.7092643800984,326.0 L338.8727681928375,326.0 L336.0362720055767,326.0 L327.37828862130505,322.0 L318.7203052370335,318.0 L315.11015261851674,318.0052646111506 L311.5,318.0105292223012 L308.863169107416,319.7552646111506 L306.226338214832,321.5 L300.0252803337344,325.8469452308453 L293.82422245263666,330.19389046169056 L286.1621112263183,333.6716173501658 L278.5,337.14934423864094 L275.76245270221216,339.7498328782034 L273.0249054044243,342.3503215177658 L272.4863111345119,345.4251607588829 L271.9477168645995,348.5 L271.079259806196,357.4363444531398 L270.21080274779246,366.37268890627956 L268.4142717387913,367.6863444531398 L266.61774072979017,369.0 L249.91965432720485,369.0 L233.22156792461956,369.0 L231.21849909066833,367.25 z M267.38391423417033,304.584973439563 L272.10983362807644,303.16268078637853 L278.8049168140382,299.15893596342755 L285.5,295.1551911404765 L290.1903020669612,290.32759557023826 L294.88060413392236,285.5 L298.47662049623443,279.5 L302.0726368585465,273.5 L304.137193548565,267.0 L306.2017502385835,260.5 L306.24895288949335,251.0 L306.2961555404032,241.5 L304.55937268337,235.5 L302.82258982633675,229.5 L299.6612949131684,223.5 L296.5,217.5 L289.5,210.4602036603148 L282.5,203.42040732062958 L276.41854508315987,200.2413958659689 L270.3370901663197,197.06238441130827 L264.41854508315987,195.50269329595125 L258.5,193.94300218059422 L249.5,193.93807255564246 L240.5,193.93314293069074 L235.0,195.56292084019248 L229.5,197.19269874969422 L222.5,200.8023173127788 L215.5,204.41193587586338 L209.41203461189042,210.6333368454102 L203.32406922378087,216.85473781495708 L199.68469360724242,223.7804821319191 L196.04531799070398,230.70622644888113 L194.53744008204797,237.10311322444056 L193.02956217339198,243.5 L193.0724270268941,251.0 L193.11529188039623,258.5 L194.8213104785356,265.0 L196.52732907667496,271.5 L200.29105783327475,278.2114686798559 L204.0547865898745,284.92293735971174 L208.8872432685874,289.8842369497495 L213.7196999473003,294.8455365397873 L219.10984997365017,298.28488237252407 L224.5,301.7242282052609 L230.5,303.8998780259524 L236.5,306.07552784664387 L243.0,306.80486645025604 L249.5,307.5342050538682 L256.07899742013217,306.77073557330783 L262.6579948402643,306.00726609274744 L267.38391423417033,304.584973439563 z M438.5,331.3418796647284 L430.5,328.90363063996966 L420.25,328.3011450199749 L410.0,327.6986593999802 L410.0,327.26144795901075 L410.0,326.82423651804123 L414.4833982078549,315.4885153319318 L418.96679641570984,304.1527941458224 L421.42557171147905,294.6894830812208 L423.8843470072483,285.2261720166193 L425.4421735036242,274.7347483937216 L427.0,264.24332477082396 L427.0,249.99999999999977 L427.0,235.75667522917558 L425.4495655201548,225.1283376145878 L423.89913104030967,214.5 L421.30543290818486,204.5 L418.71173477606004,194.5 L415.4516848675953,185.91530396956426 L412.1916349591305,177.3306079391285 L408.57493020946725,170.14879152312955 L404.958225459804,162.9669751071306 L400.84972690948166,156.25448282430685 L396.74122835915927,149.5419905414831 L390.6719056301522,141.52099527074154 L384.60258290114507,133.5 L375.05129145057253,123.94870854942727 L365.5,114.39741709885453 L357.5,108.36800843922204 L349.5,102.33859977958954 L343.72603703342776,98.66639212359905 L337.9520740668555,94.99418446760856 L328.05765168985647,90.02893097178402 L318.1632293128574,85.06367747595948 L306.776976525192,81.13753101309615 L295.3907237375267,77.21138455023282 L287.44536186876337,75.61443069770306 L279.5,74.01747684517329 L272.0,72.97133215149867 L264.5,71.92518745782405 L248.96777374695478,71.91973658605491 L233.43554749390958,71.91428571428577 L225.96777374695478,73.00432706838441 L218.5,74.09436842248306 L211.5,75.57756678192351 L204.5,77.06076514136396 L195.05948691152975,80.13470544224226 L185.6189738230595,83.20864574312057 L176.91580668691563,86.9834157583702 L168.21263955077177,90.75818577361983 L158.6458635169024,96.38853327599038 L149.07908748303305,102.01888077836094 L138.99013076891774,110.05642106342827 L128.90117405480242,118.09396134849561 L128.29143976257237,119.68290344390012 L127.68170547034231,121.27184553930462 L128.69453784377842,122.87751832562306 L129.70737021721453,124.4831911119415 L141.79667249679545,127.99159555597075 L153.88597477637637,131.5 L154.59746920288487,132.23781514803704 L155.30896362939336,132.97563029607412 L144.48815879134003,143.23781514803704 L133.6673539532867,153.5 L132.08367697664335,153.16279332399716 L130.5,152.82558664799436 L107.0,146.4078036343543 L83.5,139.99002062071423 L82.12072274205417,139.21217376401358 L80.74144548410834,138.4343269073129 L73.49778838919579,112.46716345365645 L66.25413129428324,86.5 L76.86001142463252,75.74999999999994 L87.4658915549818,64.99999999999989 L88.006056782131,64.99999999999991 L88.5462220092802,64.99999999999994 L92.0231110046401,77.6374203676917 L95.5,90.27484073538346 L97.76774697550076,91.11176119715364 L100.03549395100151,91.94868165892382 L105.26774697550076,87.21823941468612 L110.5,82.48779717044843 L116.5,77.88404290919597 L122.5,73.28028864794351 L132.0,67.03546078353673 L141.5,60.79063291912996 L150.45937174411597,56.28012800774022 L159.41874348823194,51.76962309635047 L170.45937174411597,47.45277252133445 L181.5,43.13592194631843 L190.5,40.51782695526353 L199.5,37.89973196420863 L211.0,35.85205981258923 L222.5,33.80438766096984 L242.53628060963902,33.27180027879555 L262.57256121927804,32.73921289662127 L273.036280609639,33.94977430606738 L283.5,35.1603357155135 L293.0,37.08811575182557 L302.5,39.01589578813764 L314.0,42.614263838634514 L325.5,46.21263188913139 L337.9371160094486,51.71462709476293 L350.3742320188971,57.21662230039448 L359.62136441787527,62.7531665107181 L368.86849681685345,68.28971072104173 L379.2167704851979,75.9731261943569 L389.5650441535424,83.65654166767206 L399.38853260813266,93.04785802277232 L409.2120210627229,102.43917437787258 L417.2932208739577,112.46958718893629 L425.37442068519255,122.5 L431.2331039452486,131.5 L437.0917872053047,140.5 L443.526949099794,153.5 L449.96211099428336,166.5 L454.89997303135567,181.5 L459.837835068428,196.5 L461.89000412321104,207.15093841304184 L463.94217317799405,217.80187682608366 L465.1044585238935,229.65093841304184 L466.26674386979295,241.5 L465.70416564140555,258.0 L465.14158741301816,274.5 L463.0568366814881,286.21851648681485 L460.97208594995806,297.9370329736297 L457.55097750278674,309.71851648681485 L454.12986905561536,321.5 L451.65996423670555,327.5 L449.19005941779574,333.5 L447.84502970889787,333.64006434474356 L446.5,333.7801286894872 L438.5,331.3418796647284 z M461.6623586051554,175.5 L457.8247172103109,164.5 L452.4907158345769,153.26860142853133 L447.1567144588429,142.03720285706265 L442.07460765292694,133.62351676107136 L436.99250084701094,125.20983066508006 L432.24625042350544,118.85491533254003 L427.5,112.5 L427.0,82.10785578896733 L426.5,51.715711577934655 L424.88394587538687,50.69746153127663 L423.2678917507737,49.679211484618605 L411.66819585215217,56.3396057423093 L400.0684999535306,63.0 L399.50885703311064,62.99999999999999 L398.94921411269064,62.999999999999986 L399.22460705634535,47.38093382301188 L399.5,31.761867646023774 L423.0,18.456291623814025 L446.5,5.150715601604276 L450.5,7.3703905572653525 L454.5,9.59006551292643 L474.75,20.978275794492035 L495.0,32.36648607605764 L495.0,47.68324303802882 L495.0,63.0 L494.46190895086295,63.00000000000002 L493.92381790172595,63.00000000000004 L482.23530226727416,56.50000000000005 L470.54678663282243,50.00000000000006 L470.0233933164112,50.015312774517085 L469.5,50.03062554903411 L468.0,50.97856041464644 L466.5,51.92649528025876 L466.0,119.21324764012938 L465.5,186.5 L461.6623586051554,175.5 z M234.76194952540254,297.1188411055311 L229.02389905080508,295.2238271379967 L224.13015125138057,292.0835178278866 L219.23640345195605,288.94320851777655 L214.21983820003294,283.6389304563929 L209.2032729481098,278.33465239500936 L206.5933044251325,273.1841274205574 L203.98333590215515,268.03360244610536 L202.49166795107757,262.3067024623052 L201.0,256.57980247850503 L201.0118688753865,250.03990123925252 L201.02373775077302,243.5 L202.41979241699738,238.25592892958662 L203.81584708322174,233.01185785917323 L206.09731714714792,228.25592892958662 L208.37878721107407,223.5 L214.38476415877034,217.2116109103905 L220.3907411064666,210.923221820781 L225.44537055323332,208.05506999788298 L230.5,205.18691817498495 L235.93150122742787,203.59345908749248 L241.36300245485577,202.00000000000003 L249.4999999999999,202.0 L257.636997545144,202.0 L263.068498772572,203.6115236341179 L268.5,205.2230472682358 L273.4463377302814,207.72786136439936 L278.3926754605628,210.2326754605629 L284.2178547115299,216.05785471152998 L290.043033962497,221.88303396249708 L293.5188855696547,229.20218983232536 L296.9947371768124,236.52134570215367 L297.91229751745345,243.82883046978355 L298.82985785809444,251.13631523741347 L297.8943292259139,257.8181576187067 L296.95880059373343,264.5 L293.47915278983004,271.85431284700377 L289.99950498592665,279.20862569400754 L284.02517702234127,285.0545042803491 L278.05084905875583,290.9003828666906 L270.2754245293779,294.64307765403936 L262.5,298.3857724413881 L251.5,298.6998137572268 L240.5,299.0138550730655 L234.76194952540254,297.1188411055311 z M248.86248018022806,264.25 L251.75651344537448,261.5 L262.87825672268724,249.83338399704866 L274.0,238.16676799409728 L274.0,236.06194520589884 L274.0,233.9571224177004 L271.47735743938244,232.8077295475154 L268.9547148787649,231.6583366773304 L257.0640307388554,244.0791683386652 L245.173346598946,256.5 L237.211798319193,248.64785136317735 L229.25025003944003,240.7957027263547 L227.12512501972003,241.93303512166534 L225.0,243.070367516976 L225.0277811300703,245.28518375848802 L225.0555622601406,247.5 L234.53239670926666,257.25 L244.00923115839274,267.0 L244.9888390367372,267.0 L245.96844691508164,267.0 L248.86248018022806,264.25 z"/>
</svg>